<svg xmlns="http://www.w3.org/2000/svg" viewBox="0 0 800 500" role="img" aria-labelledby="title desc">
  <title id="title">Helical gear preview</title>
  <desc id="desc">Technical illustration of a bronze helical gear.</desc>
  <defs><linearGradient id="bg" x1="0" y1="0" x2="1" y2="1"><stop stop-color="#172338"/><stop offset="1" stop-color="#2c3f5d"/></linearGradient><radialGradient id="bronze"><stop stop-color="#fcd34d"/><stop offset=".55" stop-color="#b45309"/><stop offset="1" stop-color="#451a03"/></radialGradient></defs>
  <rect width="800" height="500" fill="url(#bg)"/>
  <g transform="translate(400 240)">
    <g fill="#92400e" stroke="#fbbf24" stroke-width="5">
      <path d="M-32-190 32-190 46-145-46-145Z" transform="rotate(0)"/><path d="M-32-190 32-190 46-145-46-145Z" transform="rotate(30)"/><path d="M-32-190 32-190 46-145-46-145Z" transform="rotate(60)"/><path d="M-32-190 32-190 46-145-46-145Z" transform="rotate(90)"/><path d="M-32-190 32-190 46-145-46-145Z" transform="rotate(120)"/><path d="M-32-190 32-190 46-145-46-145Z" transform="rotate(150)"/><path d="M-32-190 32-190 46-145-46-145Z" transform="rotate(180)"/><path d="M-32-190 32-190 46-145-46-145Z" transform="rotate(210)"/><path d="M-32-190 32-190 46-145-46-145Z" transform="rotate(240)"/><path d="M-32-190 32-190 46-145-46-145Z" transform="rotate(270)"/><path d="M-32-190 32-190 46-145-46-145Z" transform="rotate(300)"/><path d="M-32-190 32-190 46-145-46-145Z" transform="rotate(330)"/>
    </g>
    <circle r="150" fill="url(#bronze)" stroke="#fde68a" stroke-width="8"/><circle r="58" fill="#1c1917" stroke="#fde68a" stroke-width="10"/><g fill="none" stroke="#fcd34d" stroke-width="8" opacity=".55"><path d="M-105-75 105 75"/><path d="M-130-25 90 130"/><path d="M-90-130 130 25"/></g>
  </g>
  <text x="400" y="475" fill="#dbeafe" font-family="Arial, sans-serif" font-size="22" text-anchor="middle">HELICAL GEAR</text>
</svg>
